<svg width="20" height="20" viewBox="0 0 20 20" fill="none" xmlns="http://www.w3.org/2000/svg">
<path fill-rule="evenodd" clip-rule="evenodd" d="M8.38864 0.987214C9.1066 -0.329073 10.8934 -0.32907 11.6114 0.987215L13.8101 5.01825C14.0127 5.38981 14.363 5.64337 14.7623 5.70753L18.4134 6.29418C20.0049 6.5499 20.5632 8.68761 19.3237 9.78003L16.6635 12.1247C16.2901 12.4538 16.1145 12.9729 16.2052 13.4796L16.9504 17.6427C17.2423 19.2735 15.6331 20.5406 14.2523 19.7671L10.62 17.7325C10.2319 17.5151 9.76809 17.5151 9.38002 17.7325L5.74769 19.7671C4.36693 20.5406 2.75771 19.2735 3.04961 17.6427L3.79479 13.4796C3.88549 12.9729 3.70992 12.4538 3.33653 12.1247L0.67629 9.78003C-0.563166 8.6876 -0.00490441 6.5499 1.58662 6.29418L5.2377 5.70753C5.63698 5.64337 5.98727 5.38981 6.18994 5.01825L8.38864 0.987214ZM10.2302 1.83981C10.1276 1.65176 9.87237 1.65177 9.76981 1.83981L7.5711 5.87084C7.12524 6.68828 6.35459 7.24611 5.47618 7.38725L1.82509 7.9739C1.59773 8.01044 1.51798 8.31582 1.69505 8.47188L4.35529 10.8165C5.17674 11.5406 5.56299 12.6826 5.36345 13.7974L4.61827 17.9605C4.57657 18.1935 4.80646 18.3745 5.00371 18.264L8.63604 16.2293C9.48979 15.7511 10.5102 15.7511 11.364 16.2293L14.9963 18.264C15.1935 18.3745 15.4234 18.1935 15.3817 17.9605L14.6366 13.7974C14.437 12.6826 14.8233 11.5406 15.6447 10.8165L18.305 8.47188C18.482 8.31582 18.4023 8.01043 18.1749 7.9739L14.5238 7.38725C13.6454 7.24611 12.8748 6.68828 12.4289 5.87084L10.2302 1.83981Z" fill="#757575"/>
</svg>
