<svg width="40" height="40" viewBox="0 0 40 40" fill="none" xmlns="http://www.w3.org/2000/svg">
<path d="M20 0C14.6553 0 10.3226 4.07531 10.3226 9.10246C10.3226 14.1296 14.6553 18.2049 20 18.2049C25.3447 18.2049 29.6774 14.1296 29.6774 9.10246C29.6774 4.07531 25.3447 0 20 0Z" fill="#529E9E"/>
<path d="M9.67742 23.0596C4.33273 23.0596 0 27.1349 0 32.162V35.0464C0 36.8747 1.40873 38.4336 3.32715 38.7282C14.3693 40.4239 25.6307 40.4239 36.6728 38.7282C38.5913 38.4336 40 36.8747 40 35.0464V32.162C40 27.1349 35.6673 23.0596 30.3226 23.0596H29.4429C28.9668 23.0596 28.4937 23.1304 28.0411 23.2694L25.8075 23.9554C22.0339 25.1144 17.9661 25.1144 14.1925 23.9554L11.9589 23.2694C11.5063 23.1304 11.0332 23.0596 10.5571 23.0596H9.67742Z" fill="#529E9E"/>
</svg>
